<?xml version="1.0" encoding="UTF-8"?>
<svg width="72px" height="100px" viewBox="0 0 72 100" version="1.1" xmlns="http://www.w3.org/2000/svg" xmlns:xlink="http://www.w3.org/1999/xlink">
    <title>Cadena</title>
    <defs>
        <linearGradient x1="-36.9291599%" y1="-43.2399412%" x2="136.723364%" y2="89.5425103%" id="linearGradient-1">
            <stop stop-color="#58AED2" offset="0%"></stop>
            <stop stop-color="#4A85D1" offset="52.067854%"></stop>
            <stop stop-color="#6245D8" offset="100%"></stop>
        </linearGradient>
    </defs>
    <g id="Conception" stroke="none" stroke-width="1" fill="none" fill-rule="evenodd">
        <g id="Cadena" transform="translate(0.000000, 9.000000)">
            <path d="M15.445098,33.3788372 L15.445098,20.2975803 C15.445098,14.9143265 17.5947557,9.75155821 21.4211598,5.94502283 C25.247564,2.13848745 30.4372802,0 35.8486326,0 L35.8486326,0 C41.2599851,0 46.4497013,2.13848745 50.2761054,5.94502283 C54.1025096,9.75155821 56.2521511,14.9143265 56.2521511,20.2975803 L56.2521511,33.3783068" id="Path-15" stroke="#58AED2" stroke-width="16.4575653" stroke-dasharray="0,0" fill-rule="nonzero"></path>
            <path d="M52.6764706,28.8537911 C63.3485615,28.8537911 72,37.4603069 72,48.0769828 L72,71.7768083 C72,82.3934842 63.3485615,91 52.6764706,91 L19.3235294,91 C8.65143854,91 0,82.3934842 0,71.7768083 L0,48.0769828 C0,37.4603069 8.65143854,28.8537911 19.3235294,28.8537911 L52.6764706,28.8537911 Z" id="Rectangle-18" fill="#6245D8"></path>
            <path d="M49.2352947,28.8537911 C60.6383502,28.8537911 69.8823538,38.049795 69.8823538,49.3936398 L69.8823538,70.4601513 C69.8823538,81.8039961 60.6383502,91 49.2352947,91 L20.6470591,91 C9.24400363,91 0,81.8039961 0,70.4601513 L0,49.3936398 C0,38.049795 9.24400363,28.8537911 20.6470591,28.8537911 L49.2352947,28.8537911 Z" id="Rectangle-19" fill="url(#linearGradient-1)"></path>
            <path d="M44.791535,50.6377253 C43.8197391,49.0411197 42.4271404,47.7396079 40.7647217,46.8743077 C39.1023029,46.0090074 37.2334946,45.6129332 35.3609024,45.7290155 C33.4883102,45.8450978 31.68339,46.4689127 30.1418155,47.532829 C28.6002409,48.5967453 27.3808342,50.0601659 26.6158019,51.7644378 C25.8507695,53.4687096 25.5692997,55.3488057 25.8019088,57.2008878 C26.0345179,59.0529699 26.7723315,60.8063684 27.9353567,62.2709974 C29.0983818,63.7356265 30.6422349,64.8555983 32.3995543,65.5094871 L32.0702715,72.6694682 C32.060536,72.874354 32.092214,73.0790998 32.1634291,73.2715912 C32.2346441,73.4640827 32.3439479,73.6403984 32.4848761,73.7901213 C32.6258043,73.9398443 32.7954941,74.0599367 32.9838977,74.1432657 C33.1723014,74.2265947 33.3755816,74.2714667 33.5817317,74.2752528 L39.0225001,74.2752528 C39.2309351,74.2752528 39.4371608,74.2328121 39.6287192,74.1510769 C39.8202776,74.0693417 39.9931933,73.9498148 40.1369984,73.7997166 C40.2808036,73.6496184 40.3925202,73.4720786 40.4653927,73.2778113 C40.5382652,73.0835439 40.57078,72.8765914 40.5609738,72.6694682 L40.1903791,65.2540473 C42.0003583,64.4495758 43.5378477,63.1415275 44.6175148,61.4875448 C45.6971819,59.833562 46.2729573,57.9042474 46.2754487,55.9321268 L46.2775651,55.9315964 C46.2772472,54.0651145 45.763331,52.2343309 44.791535,50.6377253 Z" id="Path-17" fill="#FFFFFF" fill-rule="nonzero"></path>
        </g>
    </g>
</svg>