<?xml version="1.0" encoding="UTF-8"?>
<svg width="21px" height="16px" viewBox="0 0 21 16" version="1.1" xmlns="http://www.w3.org/2000/svg" xmlns:xlink="http://www.w3.org/1999/xlink">
    <title>credit-card-front-solid</title>
    <defs>
        <filter color-interpolation-filters="auto" id="filter-1">
            <feColorMatrix in="SourceGraphic" type="matrix" values="0 0 0 0 0.349020 0 0 0 0 0.321569 0 0 0 0 0.843137 0 0 0 1.000000 0"></feColorMatrix>
        </filter>
    </defs>
    <g id="Conception" stroke="none" stroke-width="1" fill="none" fill-rule="evenodd">
        <g id="credit-card-front-solid" transform="translate(-43.000000, -390.000000)" filter="url(#filter-1)">
            <g transform="translate(43.000000, 390.000000)">
                <path d="M19.25,0 L1.75,0 C0.783854167,0 0,0.767857143 0,1.71428571 L0,14.2857143 C0,15.2321429 0.783854167,16 1.75,16 L19.25,16 C20.2161458,16 21,15.2321429 21,14.2857143 L21,1.71428571 C21,0.767857143 20.2161458,0 19.25,0 Z M7,8.42857143 C7,8.19285714 7.196875,8 7.4375,8 L9.77083333,8 C10.0114583,8 10.2083333,8.19285714 10.2083333,8.42857143 L10.2083333,9.85714286 C10.2083333,10.0928571 10.0114583,10.2857143 9.77083333,10.2857143 L7.4375,10.2857143 C7.196875,10.2857143 7,10.0928571 7,9.85714286 L7,8.42857143 Z M5.83333333,13.2857143 C5.83333333,13.5214286 5.63645833,13.7142857 5.39583333,13.7142857 L2.77083333,13.7142857 C2.53020833,13.7142857 2.33333333,13.5214286 2.33333333,13.2857143 L2.33333333,13 C2.33333333,12.7642857 2.53020833,12.5714286 2.77083333,12.5714286 L5.39583333,12.5714286 C5.63645833,12.5714286 5.83333333,12.7642857 5.83333333,13 L5.83333333,13.2857143 Z M6.41666667,9.85714286 C6.41666667,10.0928571 6.21979167,10.2857143 5.97916667,10.2857143 L2.77083333,10.2857143 C2.53020833,10.2857143 2.33333333,10.0928571 2.33333333,9.85714286 L2.33333333,8.42857143 C2.33333333,8.19285714 2.53020833,8 2.77083333,8 L5.97916667,8 C6.21979167,8 6.41666667,8.19285714 6.41666667,8.42857143 L6.41666667,9.85714286 Z M12.8333333,13.2857143 C12.8333333,13.5214286 12.6364583,13.7142857 12.3958333,13.7142857 L7.4375,13.7142857 C7.196875,13.7142857 7,13.5214286 7,13.2857143 L7,13 C7,12.7642857 7.196875,12.5714286 7.4375,12.5714286 L12.3958333,12.5714286 C12.6364583,12.5714286 12.8333333,12.7642857 12.8333333,13 L12.8333333,13.2857143 Z M14,9.85714286 C14,10.0928571 13.803125,10.2857143 13.5625,10.2857143 L11.2291667,10.2857143 C10.9885417,10.2857143 10.7916667,10.0928571 10.7916667,9.85714286 L10.7916667,8.42857143 C10.7916667,8.19285714 10.9885417,8 11.2291667,8 L13.5625,8 C13.803125,8 14,8.19285714 14,8.42857143 L14,9.85714286 Z M18.6666667,9.85714286 C18.6666667,10.0928571 18.4697917,10.2857143 18.2291667,10.2857143 L15.0208333,10.2857143 C14.7802083,10.2857143 14.5833333,10.0928571 14.5833333,9.85714286 L14.5833333,8.42857143 C14.5833333,8.19285714 14.7802083,8 15.0208333,8 L18.2291667,8 C18.4697917,8 18.6666667,8.19285714 18.6666667,8.42857143 L18.6666667,9.85714286 Z M18.6666667,4.85714286 C18.6666667,5.33214286 18.2765625,5.71428571 17.7916667,5.71428571 L14.875,5.71428571 C14.3901042,5.71428571 14,5.33214286 14,4.85714286 L14,3.14285714 C14,2.66785714 14.3901042,2.28571429 14.875,2.28571429 L17.7916667,2.28571429 C18.2765625,2.28571429 18.6666667,2.66785714 18.6666667,3.14285714 L18.6666667,4.85714286 Z" id="Shape" fill="#000000" fill-rule="nonzero"></path>
            </g>
        </g>
    </g>
</svg>