<?xml version="1.0" encoding="UTF-8"?>
<svg width="45px" height="36px" viewBox="0 0 45 36" version="1.1" xmlns="http://www.w3.org/2000/svg" xmlns:xlink="http://www.w3.org/1999/xlink">
    <title>hands-helping-solid</title>
    <defs>
        <filter color-interpolation-filters="auto" id="filter-1">
            <feColorMatrix in="SourceGraphic" type="matrix" values="0 0 0 0 1.000000 0 0 0 0 1.000000 0 0 0 0 1.000000 0 0 0 1.000000 0"></feColorMatrix>
        </filter>
    </defs>
    <g id="Conception" stroke="none" stroke-width="1" fill="none" fill-rule="evenodd">
        <g id="hands-helping-solid" transform="translate(-140.000000, -763.000000)" filter="url(#filter-1)">
            <g transform="translate(140.000000, 763.000000)">
                <path d="M34.3140406,13.4996197 L23.6265603,13.4996197 L23.6265603,17.4374525 C23.6265603,20.2290946 21.3554707,22.5003803 18.5640696,22.5003803 C15.7726684,22.5003803 13.5015789,20.2290946 13.5015789,17.4374525 L13.5015789,8.88672993 L8.93830601,11.6291492 C7.58127725,12.4378112 6.75159128,13.9074667 6.75159128,15.4825998 L6.75159128,18.8086621 L1.12660161,22.0573741 C0.0508223378,22.6761764 -0.321833227,24.0544178 0.303946873,25.13029 L5.92893654,34.8764261 C6.5476854,35.9522982 7.92580787,36.3179541 9.00158714,35.6991518 L16.2718863,31.5011408 L25.8765561,31.5011408 C28.3585828,31.5011408 30.3765479,29.4830016 30.3765479,27.0007606 L31.5015458,27.0007606 C32.7460748,27.0007606 33.7515417,25.9952068 33.7515417,24.7505704 L33.7515417,20.2501901 L34.3140406,20.2501901 C35.2491952,20.2501901 36.0015375,19.4977828 36.0015375,18.5625475 L36.0015375,15.1872623 C36.0015375,14.252027 35.2491952,13.4996197 34.3140406,13.4996197 Z M44.6991778,10.86971 L39.0741881,1.12357395 C38.4554393,0.0477017872 37.0773168,-0.317954111 36.0015375,0.300848178 L28.7312384,4.49885916 L21.5453141,4.49885916 C20.7015656,4.49885916 19.8789109,4.73794186 19.1617247,5.18094804 L16.8062603,6.65060348 C16.145324,7.05845044 15.7515747,7.78273039 15.7515747,8.55623326 L15.7515747,17.4374525 C15.7515747,18.99149 17.0101662,20.2501901 18.5640696,20.2501901 C20.117973,20.2501901 21.3765644,18.99149 21.3765644,17.4374525 L21.3765644,11.2494296 L34.3140406,11.2494296 C36.4866929,11.2494296 38.2515334,13.0144225 38.2515334,15.1872623 L38.2515334,17.1913379 L43.8765231,13.9426259 C44.9523023,13.3167918 45.3179267,11.9455822 44.6991778,10.86971 Z" id="Shape" fill="#ffffff" fill-rule="nonzero"></path>
            </g>
        </g>
    </g>
</svg>