<?xml version="1.0" encoding="UTF-8"?>
<svg width="42px" height="37px" viewBox="0 0 42 37" version="1.1" xmlns="http://www.w3.org/2000/svg" xmlns:xlink="http://www.w3.org/1999/xlink">
    <title>hand-holding-usd-solid</title>
    <defs>
        <filter color-interpolation-filters="auto" id="filter-1">
            <feColorMatrix in="SourceGraphic" type="matrix" values="0 0 0 0 1.000000 0 0 0 0 1.000000 0 0 0 0 1.000000 0 0 0 1.000000 0"></feColorMatrix>
        </filter>
    </defs>
    <g id="Conception" stroke="none" stroke-width="1" fill="none" fill-rule="evenodd">
        <g id="hand-holding-usd-solid" transform="translate(-207.000000, -757.000000)" filter="url(#filter-1)">
            <g transform="translate(207.000000, 757.000000)">
                <path d="M19.7643642,10.4279289 L23.7214662,11.4613273 C23.997801,11.5253702 24.1961597,11.7655503 24.2048932,12.0466788 C24.2048932,12.3791006 23.9066705,12.65371 23.5399076,12.65371 L20.9441304,12.65371 C20.6644021,12.6529075 20.3874253,12.5989378 20.1282105,12.4947256 C19.7461355,12.3357412 19.3057283,12.3718741 19.0126097,12.6392568 L17.627223,13.9039052 C17.5631477,13.9594915 17.5078463,14.0242877 17.463164,14.0961317 C17.3476387,14.2839379 17.3125387,14.5096803 17.3656563,14.7232432 C17.4187739,14.9368061 17.5557137,15.1205174 17.7460746,15.2335926 C18.513298,15.6899334 19.3723143,15.9736395 20.2623743,16.0646472 L20.2623743,17.3437487 C20.2623743,17.9796861 20.8332995,18.5 21.5289094,18.5 L22.7954445,18.5 C23.4917836,18.5 24.0627088,17.9796861 24.0627088,17.3437487 L24.0627088,16.0718738 C26.4638027,15.8117175 28.2801176,13.8316396 27.9636661,11.5191397 C27.7339835,9.8570305 26.3259932,8.53456966 24.5687395,8.0720697 L20.6116376,7.03867134 C20.3353028,6.97462843 20.1369441,6.73444832 20.1282105,6.45331982 C20.1282105,6.12089797 20.4264333,5.84628862 20.7931962,5.84628862 L23.3889733,5.84628862 C23.6696832,5.8467209 23.9476854,5.90069749 24.2078098,6.00527298 C24.5891557,6.16425734 25.030292,6.12812453 25.3234107,5.86074174 L26.7087974,4.5960934 C26.770755,4.54168848 26.8240948,4.47834837 26.8670231,4.40820279 C26.9835348,4.22045354 27.0194992,3.99433905 26.9669139,3.78017128 C26.9143287,3.56600351 26.7775562,3.38154944 26.5870292,3.26785131 C25.8195375,2.81151809 24.9602863,2.52781665 24.0700003,2.43679669 L24.0700003,1.15624991 C24.0700003,0.52031246 23.4998043,0 22.8034652,0 L21.5369301,0 C20.840591,0 20.270395,0.52031246 20.270395,1.15624991 L20.270395,2.42812481 C17.8722177,2.68828105 16.052257,4.66835902 16.3687085,6.98085884 C16.5976619,8.64296809 18.0100272,9.96542893 19.7643642,10.4279289 Z M41.2167128,23.7103498 C40.3563147,22.9371076 39.0146771,22.9876936 38.11053,23.7103498 L31.3731757,29.050779 C30.5461495,29.7083579 29.5168461,30.0654053 28.4565721,30.0624977 L19.8329044,30.0624977 C19.1885861,30.0624977 18.666263,29.544827 18.666263,28.9062478 C18.666263,28.2676686 19.1885861,27.7499979 19.8329044,27.7499979 L25.5414268,27.7499979 C26.7007767,27.7499979 27.7806492,26.9623026 27.9658535,25.8277324 C27.9886876,25.6974384 27.9999112,25.5654059 27.9993945,25.4331621 C27.9969815,24.1576974 26.9530416,23.1249982 25.6661116,23.1249982 L13.9996972,23.1249982 C12.0321643,23.1255114 10.1245956,23.7962709 8.59668909,25.0248614 L5.20613741,27.7499979 L1.16664144,27.7499979 C0.522323163,27.7499979 0,28.2676686 0,28.9062478 L0,35.8437473 C0,36.4823265 0.522323163,36.9999986 1.16664144,36.9999986 L27.180558,36.9999986 C28.2404761,37.000818 29.2691007,36.6440062 30.0971616,35.9882785 L41.1241106,27.2441385 C41.661021,26.8185297 41.9812093,26.1799003 41.9991996,25.4987357 C42.0171899,24.8175711 41.7311509,24.1632146 41.217442,23.7103498 L41.2167128,23.7103498 Z" id="Shape" fill="#ffffff" fill-rule="nonzero"></path>
            </g>
        </g>
    </g>
</svg>