<svg width="221" height="213" viewBox="0 0 221 213" fill="none" xmlns="http://www.w3.org/2000/svg">
<path d="M169.278 34.9412L188.993 42.5093C190.083 42.9275 191.304 42.3839 191.722 41.2946L192.479 39.323C192.897 38.2338 192.353 37.0128 191.264 36.5947L171.548 29.0266C170.459 28.6084 169.238 29.152 168.82 30.2413L168.063 32.2129C167.645 33.3021 168.188 34.5231 169.278 34.9412ZM163.522 44.0421C163.104 45.1314 163.648 46.3524 164.737 46.7705L184.453 54.3386C185.542 54.7568 186.763 54.2132 187.181 53.1239L187.938 51.1523C188.356 50.063 187.812 48.8421 186.723 48.424L167.007 40.8559C165.918 40.4377 164.697 40.9813 164.279 42.0706L163.522 44.0421ZM169.622 63.5089C167.599 62.7322 165.815 61.332 164.566 59.4206L145.942 30.9118L135.86 57.1753C134.606 60.4419 136.238 64.1064 139.504 65.3604L190.765 85.0375C194.032 86.2914 197.696 84.6599 198.95 81.3933L209.032 55.1298L176.115 63.8536C173.908 64.4375 171.645 64.2855 169.622 63.5089ZM210.924 43.4275C210.161 42.1537 209.437 40.9522 208.354 39.2162L210.442 33.7772C211.696 30.5106 210.064 26.8461 206.798 25.5921L197.242 21.9239C196.971 21.5091 196.72 21.1214 196.438 20.688C194.947 18.381 192.228 13.1636 189.352 12.1094C186.51 10.9689 181 13.027 178.347 13.7433C177.847 13.8768 177.401 13.9968 176.922 14.1241L167.366 10.4559C164.1 9.20195 160.435 10.8335 159.181 14.1001L157.093 19.5391C155.128 20.1037 153.785 20.5127 152.366 20.9492C150.505 21.5211 149.011 22.9164 148.313 24.7335L147.81 26.0458L156.359 39.1321L165.096 16.3705L204.527 31.5068L195.79 54.2683L210.9 50.2637L211.403 48.9514C212.1 47.1351 211.924 45.0979 210.924 43.4275Z" fill="url(#paint0_linear)"/>
<path d="M66.7117 176.524C67.2297 176.113 68 176.498 68 177.148V204.309C68 207.828 65.1445 210.684 61.625 210.684H6.375C2.85547 210.684 0 207.828 0 204.309V177.162C0 176.498 0.757031 176.126 1.28828 176.538C4.26328 178.848 8.20781 181.784 21.7547 191.625C24.557 193.67 29.2852 197.973 34 197.947C38.7414 197.987 43.5625 193.591 46.2586 191.625C59.8055 181.784 63.7367 178.835 66.7117 176.524ZM34 193.684C37.0812 193.737 41.5172 189.805 43.7484 188.185C61.3727 175.395 62.7141 174.28 66.7781 171.092C67.5484 170.495 68 169.565 68 168.582V166.059C68 162.539 65.1445 159.684 61.625 159.684H6.375C2.85547 159.684 0 162.539 0 166.059V168.582C0 169.565 0.451562 170.481 1.22187 171.092C5.28594 174.266 6.62734 175.395 24.2516 188.185C26.4828 189.805 30.9188 193.737 34 193.684Z" fill="url(#paint1_linear)"/>
<g filter="url(#filter0_d)">
<path d="M188.59 124C188.59 168.183 152.773 204 108.59 204C64.4069 204 28.5898 168.183 28.5898 124C28.5898 79.8171 64.4069 44 108.59 44C152.773 44 188.59 79.8171 188.59 124ZM99.3363 166.359L158.691 107.005C160.707 104.989 160.707 101.721 158.691 99.7055L151.392 92.4065C149.377 90.3906 146.109 90.3906 144.093 92.4065L95.6866 140.812L73.0869 118.213C71.0715 116.197 67.8034 116.197 65.7876 118.213L58.4886 125.512C56.4731 127.527 56.4731 130.795 58.4886 132.811L92.0369 166.359C94.0527 168.375 97.3205 168.375 99.3363 166.359Z" fill="url(#paint2_linear)"/>
</g>
<defs>
<filter id="filter0_d" x="21.5898" y="39" width="174" height="174" filterUnits="userSpaceOnUse" color-interpolation-filters="sRGB">
<feFlood flood-opacity="0" result="BackgroundImageFix"/>
<feColorMatrix in="SourceAlpha" type="matrix" values="0 0 0 0 0 0 0 0 0 0 0 0 0 0 0 0 0 0 127 0" result="hardAlpha"/>
<feOffset dy="2"/>
<feGaussianBlur stdDeviation="3.5"/>
<feColorMatrix type="matrix" values="0 0 0 0 0 0 0 0 0 0 0 0 0 0 0 0 0 0 0.5 0"/>
<feBlend mode="normal" in2="BackgroundImageFix" result="effect1_dropShadow"/>
<feBlend mode="normal" in="SourceGraphic" in2="effect1_dropShadow" result="shape"/>
</filter>
<linearGradient id="paint0_linear" x1="147" y1="34" x2="208" y2="36" gradientUnits="userSpaceOnUse">
<stop stop-color="#00DAFA"/>
<stop offset="0.523958" stop-color="#3087D7"/>
<stop offset="1" stop-color="#6743E0"/>
</linearGradient>
<linearGradient id="paint1_linear" x1="-6.43137e-09" y1="185" x2="68" y2="188" gradientUnits="userSpaceOnUse">
<stop stop-color="#00DAFA"/>
<stop offset="0.513542" stop-color="#3087D7"/>
<stop offset="1" stop-color="#6743E0"/>
</linearGradient>
<linearGradient id="paint2_linear" x1="29" y1="124" x2="189" y2="124" gradientUnits="userSpaceOnUse">
<stop stop-color="#00DAFA"/>
<stop offset="0.51875" stop-color="#3087D7"/>
<stop offset="1" stop-color="#6743E0"/>
</linearGradient>
</defs>
</svg>
